{"title":"Kingsglaive Final Fantaisy XV (2016) HQ 1080p Blu-Ray x264 DTS-H","uid":15890488,"size":10886301483,"categoryP":"video","categoryS":"hd___movies","magnet":"?xt=urn:btih:8186f13c476a3c5e27f13ae4c97dd7eab31551c9&amp;dn=Kingsglaive+Final+Fantaisy+XV+%282016%29+HQ+1080p+Blu-Ray+x264+DTS-H&amp;tr=udp%3A%2F%2Ftracker.leechers-paradise.org%3A6969&amp;tr=udp%3A%2F%2Fzer0day.ch%3A1337&amp;tr=udp%3A%2F%2Fopen.demonii.com%3A1337&amp;tr=udp%3A%2F%2Ftracker.coppersurfer.tk%3A6969&amp;tr=udp%3A%2F%2Fexodus.desync.com%3A6969","seeders":32,"leechers":56,"uploader":"SaM","files":4,"time":1474727911,"description":"HQ 1080p Blu-ray Rip x264\r\n\r\nEnglish DTS-HD 5.1 Audio\r\n\r\n\r\nEnglish|French|Spanish|Russian|Swedish|Norwegian|Polish|Finish|Turkish|Ukrainian|Danish|German|Dutch|Estonian|Latvian|Lithuanian Subtitles\r\n+\r\nSDH subs\r\n \nhttps://extraimago.com/image/w9bB \nhttps://extraimago.com/image/w9b4 \nhttps://extraimago.com/image/w9be \nhttps://extraimago.com/image/w9bZ \nhttps://extraimago.com/image/w9bK \nhttps://extraimago.com/image/w9bJ \nhttps://extraimago.com/image/w9b0 \nhttps://extraimago.com/image/w9bz \nhttps://extraimago.com/image/w9bU \nhttps://extraimago.com/image/w9bM \nhttps://extraimago.com/image/w9b9 \nhttps://extraimago.com/image/w9b3 \nhttps://extraimago.com/image/w9bb \nhttps://extraimago.com/image/w9bh \nhttps://extraimago.com/image/w9bd\r\n\r\nSpecs:\r\n\r\nSource: BD50 @ HDC\r\n\r\nFormat : Matroska\r\nFile size : 10.0 GiB\r\nDuration : 1 h 55 min\r\nOverall bit rate : 12.4 Mb/s\r\n\r\nVideo\r\nID : 1\r\nFormat : AVC\r\nFormat/Info : Advanced Video Codec\r\nFormat profile :   \r\nFormat settings, CABAC : Yes\r\nFormat settings, ReFrames : 5 frames\r\nCodec ID : V_MPEG4/ISO/AVC\r\nDuration : 1 h 55 min\r\nBit rate : 10 000 kb/s\r\nWidth : 1 920 pixels\r\nHeight : 800 pixels\r\nDisplay aspect ratio : 2.40:1\r\nFrame rate mode : Constant\r\nFrame rate : 23.976 (24000/1001) FPS\r\nColor space : YUV\r\nChroma subsampling : 4:2:0\r\nBit depth : 8 bits\r\nScan type : Progressive\r\nBits/(Pixel*Frame) : 0.272\r\nStream size : 8.07 GiB (80%)\r\nDefault : Yes\r\nForced : No\r\nColor range : Limited\r\nColor primaries : BT.709\r\nTransfer characteristics : BT.709\r\nMatrix coefficients : BT.709\r\n\r\nAudio #1\r\nFormat : DTS\r\nFormat/Info : Digital Theater Systems\r\nFormat profile : MA / Core\r\nMode : 16\r\nFormat settings, Endianness : Big\r\nCodec ID : A_DTS\r\nDuration : 1 h 55 min\r\nBit rate mode : Variable / Constant\r\nBit rate : 2 280 kb/s / 1 509 kb/s\r\nChannel(s) : 6 channels\r\nChannel positions : Front: L C R, Side: L R, LFE\r\nSampling rate : 48.0 kHz\r\nFrame rate : 93.750 FPS (512 spf)\r\nBit depth : 16 bits\r\nCompression mode : Lossless / Lossy\r\nStream size : 1.84 GiB (18%)\r\nLanguage : English\r\nDefault : Yes\r\nForced : No\r\n\r\n\r\nChapters = YES","torrent":{"xt":"urn:btih:8186f13c476a3c5e27f13ae4c97dd7eab31551c9","amp;dn":"Kingsglaive+Final+Fantaisy+XV+%282016%29+HQ+1080p+Blu-Ray+x264+DTS-H","amp;tr":["udp%3A%2F%2Ftracker.leechers-paradise.org%3A6969","udp%3A%2F%2Fzer0day.ch%3A1337","udp%3A%2F%2Fopen.demonii.com%3A1337","udp%3A%2F%2Ftracker.coppersurfer.tk%3A6969","udp%3A%2F%2Fexodus.desync.com%3A6969"],"infoHash":"8186f13c476a3c5e27f13ae4c97dd7eab31551c9","infoHashBuffer":{"type":"Buffer","data":[129,134,241,60,71,106,60,94,39,241,58,228,201,125,215,234,179,21,81,201]},"announce":[],"urlList":[]}}